<?xml version="1.0" encoding="iso-8859-1"?>
<!-- Generator: Adobe Illustrator 19.0.0, SVG Export Plug-In . SVG Version: 6.00 Build 0)  -->
<svg version="1.1" id="Layer_1" xmlns="http://www.w3.org/2000/svg" xmlns:xlink="http://www.w3.org/1999/xlink" x="0px" y="0px"
	 viewBox="0 0 480 480" style="enable-background:new 0 0 480 480;" xml:space="preserve">
<g>
	<g>
		<g>

			<path d="M137.326,234.744c0,5.523,4.477,10,10,10h46.577c5.523,0,10-4.477,10-10V198.16h73.16v36.584c0,5.523,4.477,10,10,10
				h46.584c5.523,0,10-4.477,10-10V198.16h24.935c5.523,0,10-4.477,10-10c0-5.523-4.477-10-10-10h-24.935v-36.577
				c0-5.523-4.477-10-10-10h-46.584c-5.523,0-10,4.477-10,10v36.577h-73.16v-36.577c0-5.523-4.477-10-10-10h-46.577
				c-5.523,0-10,4.477-10,10v36.577h-24.934c-5.523,0-10,4.477-10,10c0,5.523,4.477,10,10,10h24.934V234.744z M297.063,151.583
				h26.584v73.161h-26.584V151.583z M157.326,151.583h26.577v73.161h-26.577V151.583z"/>
		</g>
	</g>
</g>
<g>
</g>
<g>
</g>
<g>
</g>
<g>
</g>
<g>
</g>
<g>
</g>
<g>
</g>
<g>
</g>
<g>
</g>
<g>
</g>
<g>
</g>
<g>
</g>
<g>
</g>
<g>
</g>
<g>
</g>
</svg>
