<?xml version="1.0" encoding="iso-8859-1"?>
<!-- Generator: Adobe Illustrator 19.0.0, SVG Export Plug-In . SVG Version: 6.00 Build 0)  -->
<svg version="1.1" id="Layer_1" xmlns="http://www.w3.org/2000/svg" xmlns:xlink="http://www.w3.org/1999/xlink" x="0px" y="0px"
	 viewBox="0 0 480 480" style="enable-background:new 0 0 480 480;" xml:space="preserve">
<g>
	<g>
		<g>


			<path d="M211.639,322.781h48.246c4.151,0,7.871-2.565,9.347-6.446c0.65-1.711,15.91-42.433,13.41-87.523
				c-1.236-21.948-9.456-45.999-15.458-63.56c-2.779-8.132-6.218-18.196-6.385-21.418c1.238-4.937,2.444-8.962,3.512-12.529
				c2.978-9.942,5.335-17.812,5.378-34.166c0.293-3.596,0.906-18.911-8.583-29.57c-3.878-4.356-11.004-9.572-22.929-9.685
				c-0.415-0.01-0.81,0.017-1.206,0.061c-12.412,0.019-20.107,5.081-24.405,9.385c-10.44,10.455-10.656,25.411-10.628,27.632
				c0.006,17.577,2.122,25.356,5.322,37.121c0.887,3.259,1.887,6.937,2.979,11.331c-0.137,3.261-3.591,13.6-6.381,21.951
				c-5.903,17.67-13.987,41.869-15.216,63.698c-2.518,45.085,13.014,85.636,13.676,87.34
				C203.813,320.249,207.514,322.781,211.639,322.781z M222.827,171.702c5.991-17.93,8.571-26.132,6.951-32.587
				c-1.19-4.822-2.268-8.785-3.219-12.281c-3.076-11.311-4.621-16.989-4.621-31.952c0-0.067,0-0.135-0.002-0.202
				c-0.035-1.745,0.673-9.103,4.783-13.218c2.451-2.454,5.991-3.588,10.817-3.512c0.398,0.007,0.794-0.008,1.183-0.047
				c4.44,0.194,6.353,1.748,7.416,2.928c3.704,4.111,3.848,12.298,3.612,14.785c-0.038,0.354-0.057,0.708-0.057,1.063
				c0,13.735-1.708,19.438-4.538,28.888c-1.171,3.909-2.498,8.34-3.898,13.988c-1.608,6.49,0.986,14.551,7.005,32.165
				c3.906,11.429,8.43,24.696,11.384,37.899h-47.986C214.573,196.441,219,183.157,222.827,171.702z M208.611,230.183
				c0.011-0.186,0.031-0.377,0.042-0.564h53.996c0.006,0.103,0.018,0.207,0.023,0.309c1.711,30.839-6.05,60.242-9.978,72.853H218.78
				C214.792,290.252,206.892,260.981,208.611,230.183z"/>
		</g>
	</g>
</g>
<g>
</g>
<g>
</g>
<g>
</g>
<g>
</g>
<g>
</g>
<g>
</g>
<g>
</g>
<g>
</g>
<g>
</g>
<g>
</g>
<g>
</g>
<g>
</g>
<g>
</g>
<g>
</g>
<g>
</g>
</svg>
