<?xml version="1.0" encoding="iso-8859-1"?>
<!-- Generator: Adobe Illustrator 19.0.0, SVG Export Plug-In . SVG Version: 6.00 Build 0)  -->
<svg version="1.1" id="Layer_1" xmlns="http://www.w3.org/2000/svg" xmlns:xlink="http://www.w3.org/1999/xlink" x="0px" y="0px"
	 viewBox="0 0 480 480" style="enable-background:new 0 0 480 480;" xml:space="preserve">
<g>
	<g>
		<g>

			<path d="M151.746,159.737v83.16c0,5.523,4.478,10,10,10h13.285v24.934c0,5.523,4.477,10,10,10c5.522,0,10-4.477,10-10v-24.934
				h96.451v24.934c0,5.523,4.478,10,10,10c5.522,0,10-4.477,10-10v-24.934h13.285c5.522,0,10-4.477,10-10v-83.16h24.934
				c5.522,0,10-4.477,10-10c0-5.523-4.478-10-10-10h-24.934v-36.584c0-5.523-4.478-10-10-10h-58.234h-46.568h-58.219
				c-5.522,0-10,4.477-10,10v36.584h-24.949c-5.522,0-10,4.477-10,10c0,5.523,4.478,10,10,10H151.746z M268.184,232.898h-49.869
				v-26.584h49.869V232.898z M314.768,232.898h-26.584v-26.584h26.584V232.898z M171.746,113.153h48.219h46.568h48.234v73.16
				H171.746V113.153z M171.746,206.314h26.568v26.584h-26.568V206.314z"/>
		</g>
	</g>
</g>
<g>
</g>
<g>
</g>
<g>
</g>
<g>
</g>
<g>
</g>
<g>
</g>
<g>
</g>
<g>
</g>
<g>
</g>
<g>
</g>
<g>
</g>
<g>
</g>
<g>
</g>
<g>
</g>
<g>
</g>
</svg>
