<?xml version="1.0" encoding="iso-8859-1"?>
<!-- Generator: Adobe Illustrator 19.0.0, SVG Export Plug-In . SVG Version: 6.00 Build 0)  -->
<svg version="1.1" id="Layer_1" xmlns="http://www.w3.org/2000/svg" xmlns:xlink="http://www.w3.org/1999/xlink" x="0px" y="0px"
	 viewBox="0 0 480 480" style="enable-background:new 0 0 480 480;" xml:space="preserve">
<g>
	<g>
		<g>

			<path d="M193.19,240.23c-0.631,3.755,0.926,7.542,4.014,9.768c1.737,1.252,3.788,1.888,5.849,1.888
				c1.605,0,3.216-0.386,4.688-1.167l35.462-18.827l35.593,18.548c1.464,0.763,3.071,1.128,4.65,1.132
				c5.519-0.005,9.991-4.48,9.991-10c0-0.818-0.098-1.613-0.283-2.374l-6.804-38.885l28.645-28.123
				c2.716-2.667,3.683-6.644,2.494-10.26c-1.19-3.616-4.329-6.243-8.098-6.777l-39.748-5.627l-17.893-35.905
				c-1.692-3.395-5.158-5.54-8.95-5.54c-0.011,0-0.023,0-0.034,0c-3.805,0.013-7.273,2.184-8.947,5.601L216.17,149.71l-39.711,5.919
				c-3.764,0.561-6.883,3.21-8.047,6.833c-1.164,3.623-0.17,7.593,2.564,10.241l28.861,27.954L193.19,240.23z M199.436,172.425
				l24.878-3.708c3.253-0.485,6.059-2.538,7.506-5.491l11.057-22.57l11.21,22.496c1.468,2.945,4.29,4.979,7.548,5.441l24.888,3.523
				l-17.936,17.608c-2.348,2.305-3.412,5.618-2.844,8.859l4.332,24.759l-22.294-11.618c-2.92-1.522-6.402-1.508-9.31,0.036
				l-22.199,11.785l4.159-24.76c0.545-3.245-0.541-6.55-2.904-8.839L199.436,172.425z"/>
			<path d="M240,292.332c59.364,0,107.66-48.296,107.66-107.66S299.364,77.011,240,77.011s-107.66,48.296-107.66,107.66
				C132.34,244.035,180.636,292.332,240,292.332z M240,97.011c48.336,0,87.66,39.324,87.66,87.66s-39.324,87.66-87.66,87.66
				s-87.66-39.324-87.66-87.66C152.34,136.335,191.664,97.011,240,97.011z"/>
		</g>
	</g>
</g>
<g>
</g>
<g>
</g>
<g>
</g>
<g>
</g>
<g>
</g>
<g>
</g>
<g>
</g>
<g>
</g>
<g>
</g>
<g>
</g>
<g>
</g>
<g>
</g>
<g>
</g>
<g>
</g>
<g>
</g>
</svg>
