<?xml version="1.0" encoding="iso-8859-1"?>
<!-- Generator: Adobe Illustrator 19.0.0, SVG Export Plug-In . SVG Version: 6.00 Build 0)  -->
<svg version="1.1" id="Layer_1" xmlns="http://www.w3.org/2000/svg" xmlns:xlink="http://www.w3.org/1999/xlink" x="0px" y="0px"
	 viewBox="0 0 480 480" style="enable-background:new 0 0 480 480;" xml:space="preserve">
<g>
	<g>
		<g>

			<path d="M240.487,302.738c65.106,0,118.074-52.964,118.074-118.067c0-65.111-52.968-118.082-118.074-118.082
				S122.412,119.56,122.412,184.671C122.412,249.774,175.38,302.738,240.487,302.738z M240.487,86.589
				c54.078,0,98.074,44,98.074,98.082c0,54.074-43.996,98.067-98.074,98.067c-54.079,0-98.075-43.993-98.075-98.067
				C142.412,130.589,186.408,86.589,240.487,86.589z"/>
			<path d="M231.77,253.481c1.725,1.213,3.738,1.82,5.752,1.82c1.99,0,3.98-0.593,5.693-1.778
				c0.667-0.462,16.502-11.487,31.8-27.381c21.902-22.754,31.535-43.715,28.629-62.301c-0.026-0.164-0.056-0.329-0.089-0.492
				c-4.927-23.69-17.742-36.96-38.087-39.44c-0.401-0.049-0.806-0.073-1.21-0.073c-9.441,0-19.634,2.99-26.978,10.403
				c-7.337-7.413-17.514-10.403-26.936-10.403c-0.404,0-0.807,0.024-1.208,0.073c-20.475,2.491-33.302,15.418-38.123,38.422
				c-0.036,0.168-0.066,0.337-0.093,0.507c-2.903,18.57,6.8,39.69,28.841,62.773C215.165,241.744,231.099,253.009,231.77,253.481z
				 M190.645,166.165c3.038-14.226,8.952-20.746,20.3-22.324c9.699,0.195,15.22,5.17,16.414,14.794
				c0.621,5.009,4.877,8.769,9.924,8.769c0.002,0,0.003,0,0.005,0c5.048-0.002,9.304-3.768,9.92-8.778
				c1.184-9.617,6.715-14.589,16.446-14.785c11.204,1.575,17.107,8.386,20.265,23.318c3.23,22.272-28.883,52.182-46.363,65.698
				C219.923,219.083,187.407,188.568,190.645,166.165z"/>
		</g>
	</g>
</g>
<g>
</g>
<g>
</g>
<g>
</g>
<g>
</g>
<g>
</g>
<g>
</g>
<g>
</g>
<g>
</g>
<g>
</g>
<g>
</g>
<g>
</g>
<g>
</g>
<g>
</g>
<g>
</g>
<g>
</g>
</svg>
