<?xml version="1.0" encoding="iso-8859-1"?>
<!-- Generator: Adobe Illustrator 19.0.0, SVG Export Plug-In . SVG Version: 6.00 Build 0)  -->
<svg version="1.1" id="Layer_1" xmlns="http://www.w3.org/2000/svg" xmlns:xlink="http://www.w3.org/1999/xlink" x="0px" y="0px"
	 viewBox="0 0 480 480" style="enable-background:new 0 0 480 480;" xml:space="preserve">
<g>
	<g>
		<g>

			<path d="M244.373,321.695c2.946,0,5.742-1.299,7.642-3.55L369.05,179.486c0.163-0.193,0.308-0.395,0.453-0.596
				c0.038-0.052,0.082-0.097,0.118-0.149c0.006-0.009,0.011-0.019,0.017-0.027c0.22-0.318,0.418-0.646,0.597-0.982
				c0.029-0.056,0.054-0.113,0.082-0.169c0.144-0.281,0.273-0.567,0.388-0.857c0.037-0.093,0.069-0.188,0.104-0.282
				c0.095-0.262,0.178-0.526,0.249-0.793c0.027-0.103,0.055-0.205,0.08-0.309c0.064-0.28,0.116-0.561,0.157-0.844
				c0.013-0.086,0.03-0.171,0.04-0.256c0.044-0.367,0.07-0.734,0.072-1.102c0.001-0.053-0.005-0.105-0.006-0.158
				c-0.002-0.313-0.019-0.625-0.05-0.935c-0.013-0.119-0.03-0.236-0.047-0.354c-0.035-0.256-0.079-0.51-0.135-0.763
				c-0.025-0.116-0.051-0.23-0.08-0.346c-0.073-0.291-0.162-0.577-0.263-0.861c-0.018-0.051-0.027-0.104-0.047-0.156l-0.049-0.131
				c-0.005-0.012-0.009-0.023-0.014-0.035l-25.961-69.702c-1.458-3.914-5.194-6.51-9.371-6.51H153.316
				c-4.178,0-7.915,2.597-9.372,6.513l-25.934,69.703c-0.004,0.008-0.006,0.017-0.01,0.025l-0.052,0.14
				c-0.021,0.054-0.03,0.109-0.05,0.163c-0.099,0.28-0.186,0.564-0.259,0.851c-0.03,0.116-0.056,0.232-0.081,0.349
				c-0.055,0.253-0.099,0.506-0.134,0.761c-0.017,0.118-0.035,0.236-0.047,0.354c-0.032,0.313-0.048,0.626-0.051,0.941
				c0,0.051-0.006,0.101-0.005,0.151c0.002,0.369,0.029,0.738,0.072,1.105c0.01,0.084,0.027,0.167,0.039,0.251
				c0.041,0.286,0.094,0.569,0.16,0.851c0.023,0.102,0.051,0.202,0.077,0.302c0.072,0.27,0.157,0.536,0.252,0.801
				c0.033,0.092,0.064,0.184,0.101,0.275c0.116,0.295,0.248,0.586,0.395,0.872c0.026,0.051,0.048,0.104,0.075,0.155
				c0.18,0.337,0.378,0.667,0.6,0.986c0.006,0.008,0.01,0.017,0.016,0.025c0.033,0.048,0.074,0.09,0.108,0.137
				c0.148,0.205,0.296,0.411,0.462,0.607l117.053,138.659C238.631,320.397,241.427,321.695,244.373,321.695z M245.282,282.162
				l-43.328-99.126h87.922v0L245.282,282.162z M279.767,254.258l32.041-71.222h28.074L279.767,254.258z M328.439,113.168
				l18.574,49.868h-38.648l-23.102-49.868H328.439z M226.325,113.168h36.896l23.103,49.868h-81.318L226.325,113.168z
				 M160.266,113.168h44.307l-21.319,49.868h-41.542L160.266,113.168z M148.85,183.036h31.276l33.586,76.836L148.85,183.036z"/>
		</g>
	</g>
</g>
<g>
</g>
<g>
</g>
<g>
</g>
<g>
</g>
<g>
</g>
<g>
</g>
<g>
</g>
<g>
</g>
<g>
</g>
<g>
</g>
<g>
</g>
<g>
</g>
<g>
</g>
<g>
</g>
<g>
</g>
</svg>
