<?xml version="1.0" encoding="iso-8859-1"?>
<!-- Generator: Adobe Illustrator 19.0.0, SVG Export Plug-In . SVG Version: 6.00 Build 0)  -->
<svg version="1.1" id="Layer_1" xmlns="http://www.w3.org/2000/svg" xmlns:xlink="http://www.w3.org/1999/xlink" x="0px" y="0px"
	 viewBox="0 0 480 480" style="enable-background:new 0 0 480 480;" xml:space="preserve">
<g>
	<g>
		<g>

			<path d="M227.946,195.77h0.913h23.285h0.914c13.245,0,24.02,10.779,24.02,24.028v1.819c0,13.242-10.775,24.015-24.02,24.015
				H205.56c-5.523,0-10,4.477-10,10c0,5.523,4.477,10,10,10h24.934v24.949c0,5.523,4.477,10,10,10s10-4.477,10-10v-24.949h2.564
				c24.273,0,44.02-19.745,44.02-44.015v-1.819c0-24.277-19.747-44.028-44.02-44.028h-0.914h-23.285h-0.913
				c-13.245,0-24.021-10.777-24.021-24.025v-1.819c0-13.249,10.776-24.028,24.021-24.028h47.482c5.523,0,10-4.477,10-10
				s-4.477-10-10-10h-24.935V80.963c0-5.523-4.477-10-10-10c-5.523,0-10,4.477-10,10v24.934h-2.548
				c-24.273,0-44.021,19.751-44.021,44.028v1.819C183.925,176.021,203.673,195.77,227.946,195.77z"/>
		</g>
	</g>
</g>
<g>
</g>
<g>
</g>
<g>
</g>
<g>
</g>
<g>
</g>
<g>
</g>
<g>
</g>
<g>
</g>
<g>
</g>
<g>
</g>
<g>
</g>
<g>
</g>
<g>
</g>
<g>
</g>
<g>
</g>
</svg>
