<?xml version="1.0" encoding="UTF-8" standalone="no"?>
<!-- Generator: Adobe Illustrator 19.0.0, SVG Export Plug-In . SVG Version: 6.00 Build 0)  -->

<svg
   xmlns:dc="http://purl.org/dc/elements/1.1/"
   xmlns:cc="http://creativecommons.org/ns#"
   xmlns:rdf="http://www.w3.org/1999/02/22-rdf-syntax-ns#"
   xmlns:svg="http://www.w3.org/2000/svg"
   xmlns="http://www.w3.org/2000/svg"
   xmlns:sodipodi="http://sodipodi.sourceforge.net/DTD/sodipodi-0.dtd"
   xmlns:inkscape="http://www.inkscape.org/namespaces/inkscape"
   version="1.1"
   id="Layer_1"
   x="0px"
   y="0px"
   viewBox="0 0 479.999 479.999"
   style="enable-background:new 0 0 479.999 479.999;"
   xml:space="preserve"
   sodipodi:docname="drop.svg"
   inkscape:version="0.92.4 (5da689c313, 2019-01-14)"><metadata
   id="metadata4031"><rdf:RDF><cc:Work
       rdf:about=""><dc:format>image/svg+xml</dc:format><dc:type
         rdf:resource="http://purl.org/dc/dcmitype/StillImage" /><dc:title></dc:title></cc:Work></rdf:RDF></metadata><defs
   id="defs4029" /><sodipodi:namedview
   pagecolor="#ffffff"
   bordercolor="#666666"
   borderopacity="1"
   objecttolerance="10"
   gridtolerance="10"
   guidetolerance="10"
   inkscape:pageopacity="0"
   inkscape:pageshadow="2"
   inkscape:window-width="1366"
   inkscape:window-height="705"
   id="namedview4027"
   showgrid="false"
   inkscape:zoom="0.4916677"
   inkscape:cx="239.9995"
   inkscape:cy="239.9995"
   inkscape:window-x="-8"
   inkscape:window-y="-8"
   inkscape:window-maximized="1"
   inkscape:current-layer="Layer_1" />
	 <style
   type="text/css"
   id="style3984">
		.circle{fill:#FFFFFF;stroke:#000000;stroke-width:20;};
		.footer{stroke:#00000F;stroke-width:40;}
	</style>

<g
   id="g3996">
</g>
<g
   id="g3998">
</g>
<g
   id="g4000">
</g>
<g
   id="g4002">
</g>
<g
   id="g4004">
</g>
<g
   id="g4006">
</g>
<g
   id="g4008">
</g>
<g
   id="g4010">
</g>
<g
   id="g4012">
</g>
<g
   id="g4014">
</g>
<g
   id="g4016">
</g>
<g
   id="g4018">
</g>
<g
   id="g4020">
</g>
<g
   id="g4022">
</g>
<g
   id="g4024">
</g>
<path
   class="circle"
   d="m 207.517,379.20538 c 4.60745,3.52447 16.51943,22.20418 26.07146,41.11884 1.68564,3.40699 5.05696,5.4042 8.653,5.4042 0.22477,0 0.33715,0 0.44953,0 3.70844,-0.23496 7.19212,-2.70207 8.54064,-6.34406 7.30451,-18.44472 17.19367,-37.12445 21.464,-40.6489 84.28272,-16.79999 145.41578,-93.98593 145.41578,-183.97747 0,-103.149565 -80.34952,-187.2669752 -179.12887,-187.2669752 -98.77934,0 -179.128848,84.1174102 -179.128848,187.2669752 0,44.40834 15.170888,87.52439 42.703238,121.35934 26.97046,33.13004 64.16725,55.56917 104.96007,63.08805 z"
   id="path3924"/>
   <path
   class="footer"
   d="m 320.75244,382.61769 c -5.08538,-1.09762 -10.17075,1.9757 -11.21094,6.80519 -1.15577,4.82949 2.08038,9.65898 7.16575,10.64684 36.63783,7.79304 53.28087,19.75701 53.28087,27.55006 0,5.37829 -8.66825,14.37871 -33.28609,22.28152 -24.61784,7.9028 -57.55721,12.29325 -92.69253,12.29325 -35.13533,0 -68.0747,-4.39045 -92.69254,-12.29325 -24.50227,-7.90281 -33.28609,-16.90323 -33.28609,-22.28152 0,-7.13448 14.90939,-18.43989 47.73318,-26.23293 5.08538,-1.20737 8.09037,-6.03687 6.81903,-10.86636 -1.27134,-4.82949 -6.35672,-7.68328 -11.4421,-6.47591 -39.98954,9.43946 -61.94912,25.02555 -61.94912,43.5752 0,11.08588 7.97479,27.00125 46.11511,39.18474 26.46707,8.56138 61.6024,13.17135 98.8181,13.17135 37.21571,0 72.23545,-4.71974 98.70252,-13.17135 38.02475,-12.18349 46.11512,-28.09886 46.11512,-39.18474 -0.11558,-19.75702 -24.27111,-35.67239 -68.19027,-45.00209 z"
   id="path3926"
   inkscape:connector-curvature="0" /></svg>