<?xml version="1.0" encoding="iso-8859-1"?>
<!-- Generator: Adobe Illustrator 19.0.0, SVG Export Plug-In . SVG Version: 6.00 Build 0)  -->
<svg version="1.1" id="Layer_1" xmlns="http://www.w3.org/2000/svg" xmlns:xlink="http://www.w3.org/1999/xlink" x="0px" y="0px"
	 viewBox="0 0 480 480" style="enable-background:new 0 0 480 480;" xml:space="preserve">
<g>
	<g>
		<g>

			<path d="M133.745,276.19H343.35c5.522,0,10-4.477,10-10v-36.799c13.688-1.655,23.284-12.743,23.284-27.589V190.84
				c0-12.908-7.256-22.974-18.145-26.472c-0.776-30.553-12.938-59.361-34.446-81.423C301.62,59.946,271.9,47.28,240.358,47.28
				c-31.561,0-61.35,12.66-83.875,35.647c-21.593,22.037-33.821,50.773-34.652,81.237c-12.347,3.396-21.387,14.066-21.387,26.676
				v10.961c0,13.252,9.984,24.362,23.3,27.138v37.251C123.745,271.712,128.223,276.19,133.745,276.19z M143.745,256.19v-26.577
				H333.35v26.577H143.745z M240.359,67.28c52.667,0,95.775,42.555,98.069,95.748H141.886
				C144.189,109.835,187.475,67.28,240.359,67.28z M120.445,201.801V190.84c0-4.234,4.486-7.812,9.796-7.812H349.76
				c4.562,0,6.875,2.628,6.875,7.812v10.961c0,5.184-2.313,7.811-6.875,7.811h-6.409H133.745h-3.504
				C124.932,209.613,120.445,206.036,120.445,201.801z"/>
			<path d="M210.069,96.77c-1.859-1.86-4.439-2.93-7.069-2.93s-5.21,1.07-7.07,2.93c-1.86,1.86-2.93,4.44-2.93,7.07
				c0,2.63,1.069,5.21,2.93,7.07c1.86,1.86,4.44,2.93,7.07,2.93s5.21-1.07,7.069-2.93c1.86-1.86,2.931-4.44,2.931-7.07
				C213,101.21,211.93,98.63,210.069,96.77z"/>
			<path d="M247.429,96.77c-1.86-1.86-4.44-2.93-7.07-2.93s-5.21,1.07-7.069,2.93c-1.86,1.86-2.931,4.44-2.931,7.07
				c0,2.63,1.07,5.21,2.931,7.07c1.859,1.86,4.439,2.93,7.069,2.93c2.631,0,5.21-1.07,7.07-2.93c1.86-1.86,2.93-4.43,2.93-7.07
				C250.359,101.21,249.29,98.63,247.429,96.77z"/>
			<path d="M221.719,131.23c-2.64,0-5.21,1.07-7.07,2.93c-1.869,1.86-2.93,4.44-2.93,7.07s1.061,5.21,2.93,7.07
				c1.86,1.86,4.431,2.93,7.07,2.93c2.63,0,5.21-1.07,7.07-2.93c1.859-1.86,2.93-4.44,2.93-7.07s-1.07-5.21-2.93-7.07
				S224.349,131.23,221.719,131.23z"/>
			<path d="M259.059,131.23c-2.63,0-5.21,1.07-7.069,2.93c-1.86,1.86-2.931,4.44-2.931,7.07c0.001,2.64,1.071,5.21,2.931,7.07
				c1.859,1.87,4.44,2.93,7.069,2.93c2.63,0,5.21-1.06,7.07-2.93c1.86-1.86,2.93-4.44,2.93-7.07s-1.069-5.21-2.93-7.07
				C264.269,132.3,261.689,131.23,259.059,131.23z"/>
			<path d="M277.78,93.84c-2.641,0-5.211,1.07-7.07,2.93c-1.86,1.86-2.93,4.44-2.93,7.07c0,2.63,1.069,5.21,2.93,7.07
				c1.859,1.86,4.439,2.93,7.07,2.93c2.63,0,5.21-1.07,7.069-2.93c1.86-1.86,2.931-4.44,2.931-7.07c0-2.63-1.07-5.21-2.931-7.07
				C282.99,94.91,280.41,93.84,277.78,93.84z"/>
		</g>
	</g>
</g>
<g>
</g>
<g>
</g>
<g>
</g>
<g>
</g>
<g>
</g>
<g>
</g>
<g>
</g>
<g>
</g>
<g>
</g>
<g>
</g>
<g>
</g>
<g>
</g>
<g>
</g>
<g>
</g>
<g>
</g>
</svg>
